<svg xmlns="http://www.w3.org/2000/svg" viewBox="0 0 400 400" role="img" aria-labelledby="title">
  <title id="title">SwoLifts lifting logo</title>
  <g fill="none" stroke="#1565C0" stroke-linecap="round">
    <circle cx="200" cy="200" r="160" stroke-width="14"/>
    <path d="M 116 148 L 176 172" stroke-width="12"/>
    <path d="M 166 172 L 166 196" stroke-width="12"/>
    <path d="M 224 172 L 284 148" stroke-width="12"/>
    <path d="M 234 172 L 234 196" stroke-width="12"/>
    <path d="M 98 278 C 108 248, 122 244, 135 250 C 150 258, 172 270, 200 270 C 228 270, 250 258, 265 250 C 278 244, 292 248, 302 278 C 292 308, 278 312, 265 310 C 250 302, 228 290, 200 290 C 172 290, 150 302, 135 310 C 122 312, 108 308, 98 278 Z" stroke-width="11" stroke-linejoin="round"/>
    <path d="M 104 274 C 112 260, 122 252, 135 254 C 155 260, 172 268, 200 272 C 228 268, 245 260, 265 254 C 278 252, 288 260, 296 274 M 104 282 C 112 296, 122 304, 135 302 C 155 296, 172 288, 200 288 C 228 288, 245 296, 265 302 C 278 304, 288 296, 296 282 M 102 280 L 298 280 M 144 260 L 144 298 M 172 269 L 172 290 M 200 275 L 200 285 M 228 269 L 228 290 M 256 260 L 256 298" stroke-width="6"/>
  </g>
</svg>
